<?xml version="1.0" standalone="no"?>
<!DOCTYPE svg PUBLIC "-//W3C//DTD SVG 20010904//EN"
 "http://www.w3.org/TR/2001/REC-SVG-20010904/DTD/svg10.dtd">
<svg version="1.0" xmlns="http://www.w3.org/2000/svg"
 width="280.000000pt" height="280.000000pt" viewBox="0 0 280.000000 280.000000"
 preserveAspectRatio="xMidYMid meet">
<metadata>
Created by potrace 1.14, written by Peter Selinger 2001-2017
</metadata>
<g transform="translate(0.000000,280.000000) scale(0.100000,-0.100000)"
fill="#000000" stroke="none">
<path d="M200 2600 l0 -50 -50 0 -50 0 0 -50 0 -50 -50 0 -50 0 0 -100 0 -100
50 0 50 0 0 -50 0 -50 150 0 150 0 0 50 0 50 50 0 50 0 0 50 0 50 50 0 50 0 0
50 0 50 50 0 50 0 0 -50 0 -50 100 0 100 0 0 -50 0 -50 100 0 100 0 0 50 0 50
50 0 50 0 0 50 0 50 50 0 50 0 0 -50 0 -50 100 0 100 0 0 50 0 50 50 0 50 0 0
-50 0 -50 50 0 50 0 0 -50 0 -50 100 0 100 0 0 50 0 50 100 0 100 0 0 50 0 50
50 0 50 0 0 -50 0 -50 50 0 50 0 0 -50 0 -50 50 0 50 0 0 -50 0 -50 150 0 150
0 0 50 0 50 50 0 50 0 0 100 0 100 -50 0 -50 0 0 50 0 50 -50 0 -50 0 0 50 0
50 -200 0 -200 0 0 -50 0 -50 -50 0 -50 0 0 -50 0 -50 -100 0 -100 0 0 50 0
50 50 0 50 0 0 50 0 50 -50 0 -50 0 0 -50 0 -50 -50 0 -50 0 0 50 0 50 -100 0
-100 0 0 -50 0 -50 -50 0 -50 0 0 50 0 50 -100 0 -100 0 0 -50 0 -50 -50 0
-50 0 0 50 0 50 -100 0 -100 0 0 -50 0 -50 -50 0 -50 0 0 50 0 50 -50 0 -50 0
0 -50 0 -50 50 0 50 0 0 -50 0 -50 -100 0 -100 0 0 50 0 50 -50 0 -50 0 0 50
0 50 -200 0 -200 0 0 -50z m200 -200 l0 -150 -150 0 -150 0 0 100 0 100 50 0
50 0 0 50 0 50 100 0 100 0 0 -150z m200 100 l0 -50 -50 0 -50 0 0 50 0 50 50
0 50 0 0 -50z m600 0 l0 -50 -50 0 -50 0 0 -50 0 -50 -100 0 -100 0 0 50 0 50
50 0 50 0 0 50 0 50 100 0 100 0 0 -50z m300 0 l0 -50 -100 0 -100 0 0 50 0
50 100 0 100 0 0 -50z m300 0 l0 -50 50 0 50 0 0 -50 0 -50 -100 0 -100 0 0
50 0 50 -50 0 -50 0 0 50 0 50 100 0 100 0 0 -50z m500 0 l0 -50 -50 0 -50 0
0 50 0 50 50 0 50 0 0 -50z m300 0 l0 -50 50 0 50 0 0 -100 0 -100 -150 0
-150 0 0 150 0 150 100 0 100 0 0 -50z"/>
<path d="M200 2000 l0 -50 -50 0 -50 0 0 -100 0 -100 50 0 50 0 0 -100 0 -100
50 0 50 0 0 -50 0 -50 -100 0 -100 0 0 -50 0 -50 100 0 100 0 0 -50 0 -50 -50
0 -50 0 0 -100 0 -100 -50 0 -50 0 0 -100 0 -100 50 0 50 0 0 -50 0 -50 100 0
100 0 0 50 0 50 50 0 50 0 0 50 0 50 -50 0 -50 0 0 -50 0 -50 -100 0 -100 0 0
100 0 100 50 0 50 0 0 100 0 100 50 0 50 0 0 50 0 50 50 0 50 0 0 50 0 50 -50
0 -50 0 0 50 0 50 -50 0 -50 0 0 100 0 100 -50 0 -50 0 0 100 0 100 100 0 100
0 0 -50 0 -50 50 0 50 0 0 50 0 50 -50 0 -50 0 0 50 0 50 -100 0 -100 0 0 -50z"/>
<path d="M900 2000 l0 -50 -50 0 -50 0 0 -500 0 -500 50 0 50 0 0 -50 0 -50
400 0 400 0 0 50 0 50 50 0 50 0 0 50 0 50 50 0 50 0 0 50 0 50 50 0 50 0 0
100 0 100 -50 0 -50 0 0 100 0 100 50 0 50 0 0 100 0 100 -50 0 -50 0 0 50 0
50 -50 0 -50 0 0 50 0 50 -50 0 -50 0 0 50 0 50 -400 0 -400 0 0 -50z m700
-200 l0 -50 50 0 50 0 0 -50 0 -50 50 0 50 0 0 -50 0 -50 -400 0 -400 0 0 100
0 100 50 0 50 0 0 50 0 50 250 0 250 0 0 -50z m200 -500 l0 -50 -50 0 -50 0 0
-50 0 -50 -50 0 -50 0 0 -50 0 -50 -250 0 -250 0 0 50 0 50 -50 0 -50 0 0 100
0 100 400 0 400 0 0 -50z"/>
<path d="M2400 2000 l0 -50 -50 0 -50 0 0 -50 0 -50 50 0 50 0 0 50 0 50 100
0 100 0 0 -100 0 -100 -50 0 -50 0 0 -100 0 -100 -50 0 -50 0 0 -50 0 -50 -50
0 -50 0 0 -50 0 -50 50 0 50 0 0 -50 0 -50 50 0 50 0 0 -100 0 -100 50 0 50 0
0 -100 0 -100 -100 0 -100 0 0 50 0 50 -50 0 -50 0 0 -50 0 -50 50 0 50 0 0
-50 0 -50 100 0 100 0 0 50 0 50 50 0 50 0 0 100 0 100 -50 0 -50 0 0 100 0
100 -50 0 -50 0 0 50 0 50 100 0 100 0 0 50 0 50 -100 0 -100 0 0 50 0 50 50
0 50 0 0 100 0 100 50 0 50 0 0 100 0 100 -50 0 -50 0 0 50 0 50 -100 0 -100
0 0 -50z"/>
<path d="M100 600 l0 -50 -50 0 -50 0 0 -100 0 -100 50 0 50 0 0 -50 0 -50 50
0 50 0 0 -50 0 -50 200 0 200 0 0 50 0 50 50 0 50 0 0 50 0 50 100 0 100 0 0
-50 0 -50 -50 0 -50 0 0 -50 0 -50 50 0 50 0 0 50 0 50 50 0 50 0 0 -50 0 -50
100 0 100 0 0 50 0 50 50 0 50 0 0 -50 0 -50 100 0 100 0 0 50 0 50 50 0 50 0
0 -50 0 -50 100 0 100 0 0 50 0 50 50 0 50 0 0 -50 0 -50 50 0 50 0 0 50 0 50
-50 0 -50 0 0 50 0 50 100 0 100 0 0 -50 0 -50 50 0 50 0 0 -50 0 -50 200 0
200 0 0 50 0 50 50 0 50 0 0 50 0 50 50 0 50 0 0 100 0 100 -50 0 -50 0 0 50
0 50 -150 0 -150 0 0 -50 0 -50 -50 0 -50 0 0 -50 0 -50 -50 0 -50 0 0 -50 0
-50 -50 0 -50 0 0 50 0 50 -100 0 -100 0 0 50 0 50 -100 0 -100 0 0 -50 0 -50
-50 0 -50 0 0 -50 0 -50 -50 0 -50 0 0 50 0 50 -100 0 -100 0 0 -50 0 -50 -50
0 -50 0 0 50 0 50 -50 0 -50 0 0 50 0 50 -100 0 -100 0 0 -50 0 -50 -100 0
-100 0 0 -50 0 -50 -50 0 -50 0 0 50 0 50 -50 0 -50 0 0 50 0 50 -50 0 -50 0
0 50 0 50 -150 0 -150 0 0 -50z m300 -200 l0 -150 -100 0 -100 0 0 50 0 50
-50 0 -50 0 0 100 0 100 150 0 150 0 0 -150z m2300 50 l0 -100 -50 0 -50 0 0
-50 0 -50 -100 0 -100 0 0 150 0 150 150 0 150 0 0 -100z m-1600 -50 l0 -50
50 0 50 0 0 -50 0 -50 -100 0 -100 0 0 50 0 50 -50 0 -50 0 0 50 0 50 100 0
100 0 0 -50z m800 0 l0 -50 -50 0 -50 0 0 -50 0 -50 -100 0 -100 0 0 50 0 50
50 0 50 0 0 50 0 50 100 0 100 0 0 -50z m-1300 -100 l0 -50 -50 0 -50 0 0 50
0 50 50 0 50 0 0 -50z m900 0 l0 -50 -100 0 -100 0 0 50 0 50 100 0 100 0 0
-50z m800 0 l0 -50 -50 0 -50 0 0 50 0 50 50 0 50 0 0 -50z"/>
</g>
</svg>
